<svg width="40" height="40" viewBox="0 0 40 40" fill="none" xmlns="http://www.w3.org/2000/svg">
  <path d="M39.1667 20C39.1667 30.5 30.5 39.1667 20 39.1667C9.5 39.1667 0.833374 30.5 0.833374 20C0.833374 9.5 9.5 0.833344 20 0.833344C30.5 0.833344 39.1667 9.5 39.1667 20Z" fill="#F7931A"/>
  <path d="M28.7667 17.4667C29.1667 14.7667 27.1 13.3667 24.3 12.4L25.2667 9.03334L23.2667 8.5L22.3334 11.8C21.7667 11.6667 21.1667 11.5334 20.5667 11.4L21.5 8.06667L19.5 7.53334L18.5334 10.9L15.8334 10.3L15.2667 12.4667L17.3334 12.9C17.3334 12.9 18.8334 13.2667 18.8 13.3C19.5667 13.5 19.7 14 19.6667 14.4L18.5667 18.2667C18.6334 18.2667 18.7 18.3 18.7667 18.3667L18.5667 18.3L17.0334 23.6C16.9334 23.8667 16.7 24.2667 16.1667 24.1334C16.2 24.1667 14.7334 23.7334 14.7334 23.7334L13.6667 26.0334L16.2334 26.6C16.7667 26.7334 17.2667 26.8667 17.7667 26.9667L16.7667 30.3667L18.7667 30.9L19.7334 27.5334C20.3334 27.7 20.9 27.8334 21.4667 27.9667L20.5 31.3334L22.5 31.8667L23.5 28.4667C27.3667 29.1667 30.2667 28.8667 31.4 25.3C32.3667 22.4667 31.2667 20.8667 29.1 19.8667C30.6667 19.5334 31.8334 18.5 28.7667 17.4667ZM26.8334 23.9C26.1667 26.7667 21.4667 25.2 19.9 24.8L21.2 20.3C22.7667 20.7 27.5334 21 26.8334 23.9ZM27.5 17.5C26.9 20.1 23 18.7667 21.7 18.4334L22.8667 14.3667C24.1667 14.7 28.1334 14.8 27.5 17.5Z" fill="white"/>
</svg> 