<svg width="35" height="35" viewBox="0 0 35 35" fill="none" xmlns="http://www.w3.org/2000/svg">
<path d="M17.5 21.875C19.9162 21.875 21.875 19.9162 21.875 17.5C21.875 15.0838 19.9162 13.125 17.5 13.125C15.0838 13.125 13.125 15.0838 13.125 17.5C13.125 19.9162 15.0838 21.875 17.5 21.875Z" stroke="#818181" stroke-width="2"/>
<path d="M20.075 3.13864C19.5389 2.91663 18.8595 2.91663 17.5005 2.91663C16.1414 2.91663 15.462 2.91663 14.9259 3.13864C14.2113 3.43467 13.6435 4.00247 13.3475 4.71713C13.2123 5.04337 13.1594 5.42277 13.1387 5.97619C13.1083 6.78949 12.6913 7.5423 11.9864 7.94923C11.2816 8.35615 10.4211 8.34095 9.70157 7.96065C9.21195 7.70185 8.85694 7.55795 8.50683 7.51186C7.7399 7.41089 6.96427 7.61872 6.35057 8.08963C5.89029 8.44281 5.55055 9.03127 4.87105 10.2082C4.19155 11.3851 3.85181 11.9736 3.77607 12.5488C3.67511 13.3157 3.88294 14.0913 4.35385 14.7051C4.56878 14.9852 4.87086 15.2206 5.3397 15.5152C6.02892 15.9483 6.47239 16.6861 6.47234 17.5C6.4723 18.3139 6.02885 19.0515 5.33968 19.4845C4.87079 19.7792 4.56866 20.0147 4.35371 20.2949C3.8828 20.9085 3.67497 21.6841 3.77594 22.451C3.85166 23.0262 4.19141 23.6147 4.8709 24.7916C5.55041 25.9685 5.89016 26.5571 6.35043 26.9101C6.96412 27.381 7.73975 27.5889 8.50669 27.4879C8.85676 27.4419 9.21176 27.2979 9.70136 27.0392C10.4209 26.6589 11.2815 26.6437 11.9864 27.0506C12.6912 27.4576 13.1083 28.2104 13.1387 29.0239C13.1595 29.5771 13.2123 29.9566 13.3475 30.2828C13.6435 30.9974 14.2113 31.5653 14.9259 31.8613C15.462 32.0833 16.1414 32.0833 17.5005 32.0833C18.8595 32.0833 19.5389 32.0833 20.075 31.8613C20.7896 31.5653 21.3575 30.9974 21.6534 30.2828C21.7885 29.9566 21.8415 29.5771 21.8622 29.0237C21.8925 28.2104 22.3096 27.4576 23.0144 27.0506C23.7192 26.6436 24.5798 26.6589 25.2995 27.0392C25.789 27.2979 26.144 27.4417 26.494 27.4878C27.2609 27.5889 28.0366 27.381 28.6503 26.9101C29.1105 26.5569 29.4503 25.9685 30.1298 24.7915C30.8094 23.6146 31.1492 23.0262 31.2248 22.451C31.3258 21.6841 31.1179 20.9084 30.647 20.2947C30.4321 20.0146 30.1299 19.779 29.6611 19.4845C28.972 19.0515 28.5285 18.3137 28.5285 17.4998C28.5285 16.6859 28.972 15.9484 29.6611 15.5155C30.1301 15.2207 30.4322 14.9854 30.6472 14.7051C31.1181 14.0914 31.3259 13.3158 31.225 12.5489C31.1493 11.9737 30.8095 11.3852 30.1299 10.2083C29.4505 9.03137 29.1107 8.44291 28.6504 8.08973C28.0368 7.61882 27.2611 7.41099 26.4942 7.51197C26.1442 7.55805 25.7892 7.70194 25.2995 7.96071C24.5799 8.34103 23.7194 8.35624 23.0146 7.94928C22.3096 7.54233 21.8925 6.78946 21.8622 5.97612C21.8415 5.42274 21.7885 5.04336 21.6534 4.71713C21.3575 4.00247 20.7896 3.43467 20.075 3.13864Z" stroke="#818181" stroke-width="2"/>
</svg>
