<svg width="40" height="40" viewBox="0 0 40 40" fill="none" xmlns="http://www.w3.org/2000/svg">
  <circle cx="20" cy="20" r="20" fill="#26A17B"/>
  <path d="M23.0892 19.5258V17.1476H28.8529V13.1499H11.1312V17.1476H16.8949V19.5258C12.2332 19.7377 8.75 20.6614 8.75 21.7673C8.75 22.8732 12.2332 23.7969 16.8949 24.0088V31.1499H23.0892V24.0088C27.7509 23.7969 31.2341 22.8732 31.2341 21.7673C31.2341 20.6614 27.7668 19.7377 23.0892 19.5258ZM23.0892 23.1791V22.9672C23.0415 22.9672 22.7608 22.9831 22.2162 22.9831C21.7669 22.9831 21.2699 22.9831 20.9892 22.9672H19.0108C18.587 22.9831 17.9947 22.9831 17.7776 22.9831C17.2806 22.9831 16.9522 22.9672 16.9045 22.9672V23.1791C12.7143 22.9991 9.61501 22.2235 9.61501 21.2998C9.61501 20.3761 12.7143 19.6005 16.9045 19.4205V21.8946C16.9522 21.9105 17.2647 21.9264 17.7776 21.9424C18.2428 21.9583 18.7875 21.9583 19.0108 21.9583H20.9892C21.4544 21.9583 22.0149 21.9583 22.2162 21.9424C22.7291 21.9264 23.0415 21.9105 23.0892 21.8946V19.4205C27.2794 19.6005 30.3787 20.3761 30.3787 21.2998C30.3787 22.2235 27.2794 22.9991 23.0892 23.1791Z" fill="white"/>
  <path d="M20.0159 15.1499C24.3651 15.1499 27.8959 14.4699 27.8959 13.6465C27.8959 12.8231 24.3651 12.1499 20.0159 12.1499C15.6667 12.1499 12.1359 12.8231 12.1359 13.6465C12.1359 14.4699 15.6667 15.1499 20.0159 15.1499Z" fill="white"/>
</svg> 