<svg width="29" height="29" viewBox="0 0 29 29" fill="none" xmlns="http://www.w3.org/2000/svg">
<path d="M12.0013 16.9932L26.5949 2.40508M12.4161 17.6493L15.7252 24.2676C16.5249 25.8669 16.9247 26.6666 17.4284 26.881C17.8656 27.0672 18.3653 27.0334 18.7736 26.7904C19.244 26.5103 19.5328 25.6641 20.1107 23.9719L26.363 5.66134C26.8666 4.18688 27.1182 3.44965 26.946 2.96195C26.796 2.53768 26.4623 2.20395 26.0381 2.05405C25.5503 1.88175 24.8131 2.13349 23.3386 2.63695L5.02804 8.88936C3.33584 9.46719 2.48973 9.75611 2.20964 10.2265C1.96657 10.6347 1.93289 11.1344 2.11898 11.5714C2.33342 12.0752 3.1331 12.4751 4.73247 13.2747L11.3507 16.5839C11.6143 16.7157 11.7461 16.7815 11.8601 16.8695C11.9615 16.9477 12.0524 17.0385 12.1304 17.1397C12.2185 17.254 12.2843 17.3857 12.4161 17.6493Z" stroke="#E8E2E2" stroke-width="3" stroke-linecap="round" stroke-linejoin="round"/>
</svg>
